M48
;Layer_Color=9474304
;FILE_FORMAT=2:5
INCH,LZ
;TYPE=PLATED
T1F00S00C0.03000
T2F00S00C0.03543
T3F00S00C0.03937
T4F00S00C0.05118
T5F00S00C0.05906
%
T01
X0253Y0155
X0313
Y0165
Y0175
Y0185
Y0195
Y0205
Y0215
Y0225
Y0235
Y0245
Y0255
Y0265
Y0275
Y0285
Y0295
Y0305
X03345Y01625
X03445
X0253Y0165
Y0175
Y0185
Y0195
Y0205
Y0215
Y0225
Y0235
Y0245
Y0255
Y0265
Y0275
Y0285
Y0295
Y0305
X0226Y02475
Y02396
Y02317
Y02238
Y02159
Y0208
Y02004
Y01925
Y01846
Y01767
X0224Y01625
X0234
X0165Y02835
Y02935
Y03035
X01394Y02475
Y02396
Y02317
Y02238
Y02159
Y0208
Y02001
Y01922
Y01843
Y01764
X0165Y03135
Y03235
Y03335
Y03435
Y03535
Y03635
X0259Y0365
X0269
X0279
X0289
X0299
X0309
X0253Y0315
X0313
T02
X0374Y01645
Y01945
X03525Y0290989
Y0301011
X0336Y0293
X01975Y021
X0175Y0211
Y0181
X01975Y017
X0336Y0323
X03525Y0323011
Y0312989
X03315Y0342489
Y0352511
T03
X03455Y0180256
Y0274744
X0355Y0346
Y0356
Y0366
T04
X03455Y0207815
Y0247185
Y026687
T05
X03455Y018813
M30
