G04 Layer_Color=16711935*
%FSAX25Y25*%
%MOIN*%
G70*
G01*
G75*
%ADD25O,0.09800X0.06800*%
%ADD26O,0.06800X0.09800*%
%ADD27R,0.12800X0.09800*%
%ADD28O,0.12800X0.09800*%
%ADD29C,0.08674*%
%ADD30R,0.08674X0.08674*%
%ADD31C,0.09800*%
%ADD32C,0.12611*%
%ADD33C,0.08300*%
%ADD34R,0.08800X0.08800*%
%ADD35C,0.08800*%
G04:AMPARAMS|DCode=36|XSize=68mil|YSize=98mil|CornerRadius=0mil|HoleSize=0mil|Usage=FLASHONLY|Rotation=91.000|XOffset=0mil|YOffset=0mil|HoleType=Round|Shape=Round|*
%AMOVALD36*
21,1,0.03000,0.06800,0.00000,0.00000,181.0*
1,1,0.06800,0.01500,0.00026*
1,1,0.06800,-0.01500,-0.00026*
%
%ADD36OVALD36*%

D25*
X0165000Y0283500D02*
D03*
Y0293500D02*
D03*
Y0303500D02*
D03*
Y0313500D02*
D03*
Y0323500D02*
D03*
Y0333500D02*
D03*
Y0343500D02*
D03*
Y0353500D02*
D03*
Y0363500D02*
D03*
X0313000Y0315000D02*
D03*
Y0305000D02*
D03*
Y0295000D02*
D03*
Y0285000D02*
D03*
Y0275000D02*
D03*
Y0265000D02*
D03*
Y0255000D02*
D03*
Y0245000D02*
D03*
Y0235000D02*
D03*
Y0225000D02*
D03*
Y0215000D02*
D03*
Y0205000D02*
D03*
Y0195000D02*
D03*
Y0185000D02*
D03*
Y0175000D02*
D03*
Y0165000D02*
D03*
Y0155000D02*
D03*
X0253000Y0315000D02*
D03*
Y0305000D02*
D03*
Y0295000D02*
D03*
Y0285000D02*
D03*
Y0275000D02*
D03*
Y0265000D02*
D03*
Y0255000D02*
D03*
Y0245000D02*
D03*
Y0235000D02*
D03*
Y0225000D02*
D03*
Y0215000D02*
D03*
Y0205000D02*
D03*
Y0195000D02*
D03*
Y0185000D02*
D03*
Y0175000D02*
D03*
Y0165000D02*
D03*
Y0155000D02*
D03*
X0226000Y0247500D02*
D03*
Y0239600D02*
D03*
Y0231700D02*
D03*
Y0223800D02*
D03*
Y0215900D02*
D03*
Y0208000D02*
D03*
Y0200400D02*
D03*
Y0192500D02*
D03*
Y0184600D02*
D03*
Y0176700D02*
D03*
X0139400Y0247500D02*
D03*
Y0239600D02*
D03*
Y0231700D02*
D03*
Y0223800D02*
D03*
Y0215900D02*
D03*
Y0208000D02*
D03*
Y0200100D02*
D03*
Y0192200D02*
D03*
Y0176400D02*
D03*
D26*
X0334500Y0162500D02*
D03*
X0344500D02*
D03*
X0224000D02*
D03*
X0234000D02*
D03*
X0259000Y0365000D02*
D03*
X0269000D02*
D03*
X0279000D02*
D03*
X0289000D02*
D03*
X0299000D02*
D03*
X0309000D02*
D03*
D27*
X0355000Y0366000D02*
D03*
D28*
Y0356000D02*
D03*
Y0346000D02*
D03*
D29*
X0374000Y0164500D02*
D03*
X0175000Y0211000D02*
D03*
X0336000Y0293000D02*
D03*
D30*
X0374000Y0194500D02*
D03*
X0175000Y0181000D02*
D03*
X0336000Y0323000D02*
D03*
D31*
X0345500Y0180256D02*
D03*
Y0274744D02*
D03*
D32*
Y0266870D02*
D03*
Y0247185D02*
D03*
Y0207815D02*
D03*
Y0188130D02*
D03*
D33*
X0197500Y0170000D02*
D03*
Y0210000D02*
D03*
D34*
X0331500Y0352511D02*
D03*
X0352500Y0312989D02*
D03*
Y0301011D02*
D03*
D35*
X0331500Y0342489D02*
D03*
X0352500Y0323011D02*
D03*
Y0290989D02*
D03*
D36*
X0139400Y0184300D02*
D03*
M02*
